# MagicaVoxel @ Ephtracy

# material
mtllib DADDY_ROAD_YELLOW.mtl
usemtl palette

# normals
vn -1 0 0
vn 1 0 0
vn 0 0 1
vn 0 0 -1
vn 0 -1 0
vn 0 1 0

# texcoords
vt 0.162109 0.5
vt 0.994141 0.5

# verts
v -63 0 63
v -63 0 -63
v -63 1 63
v -63 1 -63
v -53 1 9
v -53 1 -9
v -53 2 9
v -53 2 -9
v 15 1 9
v 15 1 -9
v 15 2 9
v 15 2 -9
v -11 1 9
v -11 1 -9
v -11 2 9
v -11 2 -9
v 55 1 9
v 55 1 -9
v 55 2 9
v 55 2 -9
v 63 0 63
v 63 0 -63
v 63 1 63
v 63 1 -63
v -63 0 63
v -63 1 63
v 63 0 63
v 63 1 63
v -53 1 9
v -53 2 9
v -11 1 9
v -11 2 9
v 15 1 9
v 15 2 9
v 55 1 9
v 55 2 9
v -53 1 -9
v -53 2 -9
v -11 1 -9
v -11 2 -9
v 15 1 -9
v 15 2 -9
v 55 1 -9
v 55 2 -9
v -63 0 -63
v -63 1 -63
v 63 0 -63
v 63 1 -63
v -63 0 63
v 63 0 63
v -53 0 -1
v -52 0 -1
v -53 0 -2
v -52 0 -2
v -63 0 -63
v 63 0 -63
v -63 1 63
v 63 1 63
v -53 1 9
v -11 1 9
v 15 1 9
v 55 1 9
v -53 1 -9
v -11 1 -9
v 15 1 -9
v 55 1 -9
v -63 1 -63
v 63 1 -63
v -53 2 9
v -11 2 9
v 15 2 9
v 55 2 9
v -53 2 -9
v -11 2 -9
v 15 2 -9
v 55 2 -9

# faces
f 3/2/1 2/2/1 1/2/1
f 4/2/1 2/2/1 3/2/1
f 7/1/1 6/1/1 5/1/1
f 8/1/1 6/1/1 7/1/1
f 11/1/1 10/1/1 9/1/1
f 12/1/1 10/1/1 11/1/1
f 13/1/2 14/1/2 15/1/2
f 15/1/2 14/1/2 16/1/2
f 17/1/2 18/1/2 19/1/2
f 19/1/2 18/1/2 20/1/2
f 21/2/2 22/2/2 23/2/2
f 23/2/2 22/2/2 24/2/2
f 27/2/3 26/2/3 25/2/3
f 28/2/3 26/2/3 27/2/3
f 31/1/3 30/1/3 29/1/3
f 32/1/3 30/1/3 31/1/3
f 35/1/3 34/1/3 33/1/3
f 36/1/3 34/1/3 35/1/3
f 37/1/4 38/1/4 39/1/4
f 39/1/4 38/1/4 40/1/4
f 41/1/4 42/1/4 43/1/4
f 43/1/4 42/1/4 44/1/4
f 45/2/4 46/2/4 47/2/4
f 47/2/4 46/2/4 48/2/4
f 51/2/5 50/2/5 49/2/5
f 52/2/5 50/2/5 51/2/5
f 53/2/5 51/2/5 49/2/5
f 53/1/5 52/1/5 51/1/5
f 54/2/5 50/2/5 52/2/5
f 54/1/5 52/1/5 53/1/5
f 55/2/5 53/2/5 49/2/5
f 55/2/5 54/2/5 53/2/5
f 56/2/5 50/2/5 54/2/5
f 56/2/5 54/2/5 55/2/5
f 57/2/6 58/2/6 59/2/6
f 59/2/6 58/2/6 60/2/6
f 60/2/6 58/2/6 61/2/6
f 61/2/6 58/2/6 62/2/6
f 57/2/6 59/2/6 63/2/6
f 60/2/6 61/2/6 64/2/6
f 64/2/6 61/2/6 65/2/6
f 62/2/6 58/2/6 66/2/6
f 64/2/6 65/2/6 67/2/6
f 65/2/6 66/2/6 67/2/6
f 57/2/6 63/2/6 67/2/6
f 63/2/6 64/2/6 67/2/6
f 66/2/6 58/2/6 68/2/6
f 67/2/6 66/2/6 68/2/6
f 69/1/6 70/1/6 73/1/6
f 73/1/6 70/1/6 74/1/6
f 71/1/6 72/1/6 75/1/6
f 75/1/6 72/1/6 76/1/6
