# MagicaVoxel @ Ephtracy

# material
mtllib Garret2.mtl
usemtl palette

# normals
vn -1 0 0
vn 1 0 0
vn 0 0 1
vn 0 0 -1
vn 0 -1 0
vn 0 1 0

# texcoords
vt 0.0605469 0.5
vt 0.775391 0.5
vt 0.861328 0.5
vt 0.865234 0.5
vt 0.958984 0.5
vt 0.978516 0.5
vt 0.994141 0.5

# verts
v -1 1 2
v -1 1 -1
v -1 2 2
v -1 2 1
v -1 2 -0
v -1 2 -1
v -1 4 2
v -1 4 1
v -1 4 -0
v -1 4 -1
v -1 5 2
v -1 5 1
v -1 5 -0
v -1 5 -1
v -1 6 2
v -1 6 1
v -1 6 -0
v -1 6 -1
v -1 7 2
v -1 7 -1
v 0 0 2
v 0 0 1
v 0 0 -0
v 0 0 -1
v 0 1 2
v 0 1 1
v 0 1 -0
v 0 1 -1
v 0 2 3
v 0 2 2
v 0 2 -1
v 0 2 -2
v 0 3 3
v 0 3 2
v 0 3 -1
v 0 3 -2
v 0 4 3
v 0 4 2
v 0 4 -1
v 0 4 -2
v 1 0 2
v 1 0 1
v 1 0 -0
v 1 0 -1
v 1 1 2
v 1 1 1
v 1 1 -0
v 1 1 -1
v 1 2 3
v 1 2 2
v 1 2 -1
v 1 2 -2
v 1 3 3
v 1 3 2
v 1 3 -1
v 1 3 -2
v 1 4 3
v 1 4 2
v 1 4 -1
v 1 4 -2
v 2 1 2
v 2 1 -1
v 2 2 2
v 2 2 -1
v 2 4 2
v 2 4 -1
v 2 6 2
v 2 6 -1
v 2 7 2
v 2 7 -1
v 0 2 3
v 0 3 3
v 0 4 3
v 1 2 3
v 1 3 3
v 1 4 3
v -1 1 2
v -1 2 2
v -1 4 2
v -1 5 2
v -1 6 2
v -1 7 2
v 0 0 2
v 0 1 2
v 0 2 2
v 0 3 2
v 0 4 2
v 0 5 2
v 0 6 2
v 1 0 2
v 1 1 2
v 1 2 2
v 1 3 2
v 1 4 2
v 2 1 2
v 2 2 2
v 2 4 2
v 2 6 2
v 2 7 2
v 0 0 -0
v 0 1 -0
v 1 0 -0
v 1 1 -0
v 0 0 1
v 0 1 1
v 1 0 1
v 1 1 1
v -1 1 -1
v -1 2 -1
v -1 4 -1
v -1 5 -1
v -1 6 -1
v -1 7 -1
v 0 0 -1
v 0 1 -1
v 0 2 -1
v 0 3 -1
v 0 4 -1
v 0 5 -1
v 0 6 -1
v 1 0 -1
v 1 1 -1
v 1 2 -1
v 1 3 -1
v 1 4 -1
v 2 1 -1
v 2 2 -1
v 2 4 -1
v 2 6 -1
v 2 7 -1
v 0 2 -2
v 0 3 -2
v 0 4 -2
v 1 2 -2
v 1 3 -2
v 1 4 -2
v 0 0 2
v 1 0 2
v 0 0 1
v 1 0 1
v 0 0 -0
v 1 0 -0
v 0 0 -1
v 1 0 -1
v -1 1 2
v 0 1 2
v 1 1 2
v 2 1 2
v 0 1 1
v 1 1 1
v 0 1 -0
v 1 1 -0
v -1 1 -1
v 0 1 -1
v 1 1 -1
v 2 1 -1
v 0 2 3
v 1 2 3
v 0 2 2
v 1 2 2
v 0 2 -1
v 1 2 -1
v 0 2 -2
v 1 2 -2
v 0 4 3
v 1 4 3
v 0 4 2
v 1 4 2
v 0 4 -1
v 1 4 -1
v 0 4 -2
v 1 4 -2
v -1 7 2
v 2 7 2
v -1 7 -1
v 2 7 -1

# faces
f 3/2/1 2/2/1 1/2/1
f 4/2/1 2/2/1 3/2/1
f 5/2/1 2/2/1 4/2/1
f 6/2/1 2/2/1 5/2/1
f 7/5/1 4/5/1 3/5/1
f 8/6/1 5/6/1 4/6/1
f 8/5/1 4/5/1 7/5/1
f 9/5/1 6/5/1 5/5/1
f 9/6/1 5/6/1 8/6/1
f 10/5/1 6/5/1 9/5/1
f 11/1/1 8/1/1 7/1/1
f 11/1/1 9/1/1 8/1/1
f 11/1/1 10/1/1 9/1/1
f 12/1/1 10/1/1 11/1/1
f 13/1/1 10/1/1 12/1/1
f 14/1/1 10/1/1 13/1/1
f 15/7/1 12/7/1 11/7/1
f 16/1/1 13/1/1 12/1/1
f 16/7/1 12/7/1 15/7/1
f 17/7/1 14/7/1 13/7/1
f 17/1/1 13/1/1 16/1/1
f 18/7/1 14/7/1 17/7/1
f 19/3/1 16/3/1 15/3/1
f 19/3/1 17/3/1 16/3/1
f 19/3/1 18/3/1 17/3/1
f 20/3/1 18/3/1 19/3/1
f 25/4/1 22/4/1 21/4/1
f 26/4/1 22/4/1 25/4/1
f 27/4/1 24/4/1 23/4/1
f 28/4/1 24/4/1 27/4/1
f 33/1/1 30/1/1 29/1/1
f 34/1/1 30/1/1 33/1/1
f 35/1/1 32/1/1 31/1/1
f 36/1/1 32/1/1 35/1/1
f 37/5/1 34/5/1 33/5/1
f 38/5/1 34/5/1 37/5/1
f 39/5/1 36/5/1 35/5/1
f 40/5/1 36/5/1 39/5/1
f 41/4/2 42/4/2 45/4/2
f 45/4/2 42/4/2 46/4/2
f 43/4/2 44/4/2 47/4/2
f 47/4/2 44/4/2 48/4/2
f 49/1/2 50/1/2 53/1/2
f 53/1/2 50/1/2 54/1/2
f 51/1/2 52/1/2 55/1/2
f 55/1/2 52/1/2 56/1/2
f 53/5/2 54/5/2 57/5/2
f 57/5/2 54/5/2 58/5/2
f 55/5/2 56/5/2 59/5/2
f 59/5/2 56/5/2 60/5/2
f 61/2/2 62/2/2 63/2/2
f 63/2/2 62/2/2 64/2/2
f 63/5/2 64/5/2 65/5/2
f 65/5/2 64/5/2 66/5/2
f 65/1/2 66/1/2 67/1/2
f 67/1/2 66/1/2 68/1/2
f 67/3/2 68/3/2 69/3/2
f 69/3/2 68/3/2 70/3/2
f 74/1/3 72/1/3 71/1/3
f 75/5/3 73/5/3 72/5/3
f 75/1/3 72/1/3 74/1/3
f 76/5/3 73/5/3 75/5/3
f 84/2/3 78/2/3 77/2/3
f 85/5/3 79/5/3 78/5/3
f 85/2/3 78/2/3 84/2/3
f 86/5/3 79/5/3 85/5/3
f 87/1/3 80/1/3 79/1/3
f 87/5/3 79/5/3 86/5/3
f 88/7/3 81/7/3 80/7/3
f 88/1/3 80/1/3 87/1/3
f 89/3/3 82/3/3 81/3/3
f 89/7/3 81/7/3 88/7/3
f 90/4/3 84/4/3 83/4/3
f 91/2/3 85/2/3 84/2/3
f 91/4/3 84/4/3 90/4/3
f 92/2/3 85/2/3 91/2/3
f 94/1/3 88/1/3 87/1/3
f 94/1/3 89/1/3 88/1/3
f 95/2/3 92/2/3 91/2/3
f 96/5/3 93/5/3 92/5/3
f 96/2/3 92/2/3 95/2/3
f 96/5/3 94/5/3 93/5/3
f 97/1/3 89/1/3 94/1/3
f 97/5/3 94/5/3 96/5/3
f 98/3/3 82/3/3 89/3/3
f 98/1/3 89/1/3 97/1/3
f 99/3/3 82/3/3 98/3/3
f 102/4/3 101/4/3 100/4/3
f 103/4/3 101/4/3 102/4/3
f 104/4/4 105/4/4 106/4/4
f 106/4/4 105/4/4 107/4/4
f 108/2/4 109/2/4 115/2/4
f 109/5/4 110/5/4 116/5/4
f 115/2/4 109/2/4 116/2/4
f 116/5/4 110/5/4 117/5/4
f 110/1/4 111/1/4 118/1/4
f 117/5/4 110/5/4 118/5/4
f 111/7/4 112/7/4 119/7/4
f 118/1/4 111/1/4 119/1/4
f 112/3/4 113/3/4 120/3/4
f 119/7/4 112/7/4 120/7/4
f 114/4/4 115/4/4 121/4/4
f 115/2/4 116/2/4 122/2/4
f 121/4/4 115/4/4 122/4/4
f 122/2/4 116/2/4 123/2/4
f 118/1/4 119/1/4 125/1/4
f 119/1/4 120/1/4 125/1/4
f 122/2/4 123/2/4 126/2/4
f 123/5/4 124/5/4 127/5/4
f 126/2/4 123/2/4 127/2/4
f 124/5/4 125/5/4 127/5/4
f 125/1/4 120/1/4 128/1/4
f 127/5/4 125/5/4 128/5/4
f 120/3/4 113/3/4 129/3/4
f 128/1/4 120/1/4 129/1/4
f 129/3/4 113/3/4 130/3/4
f 131/1/4 132/1/4 134/1/4
f 132/5/4 133/5/4 135/5/4
f 134/1/4 132/1/4 135/1/4
f 135/5/4 133/5/4 136/5/4
f 139/4/5 138/4/5 137/4/5
f 140/4/5 138/4/5 139/4/5
f 143/4/5 142/4/5 141/4/5
f 144/4/5 142/4/5 143/4/5
f 149/2/5 146/2/5 145/2/5
f 150/2/5 148/2/5 147/2/5
f 151/2/5 149/2/5 145/2/5
f 151/2/5 150/2/5 149/2/5
f 152/2/5 148/2/5 150/2/5
f 152/2/5 150/2/5 151/2/5
f 153/2/5 151/2/5 145/2/5
f 154/2/5 151/2/5 153/2/5
f 155/2/5 148/2/5 152/2/5
f 156/2/5 148/2/5 155/2/5
f 159/1/5 158/1/5 157/1/5
f 160/1/5 158/1/5 159/1/5
f 163/1/5 162/1/5 161/1/5
f 164/1/5 162/1/5 163/1/5
f 165/5/6 166/5/6 167/5/6
f 167/5/6 166/5/6 168/5/6
f 169/5/6 170/5/6 171/5/6
f 171/5/6 170/5/6 172/5/6
f 173/3/6 174/3/6 175/3/6
f 175/3/6 174/3/6 176/3/6
